<svg width="11" height="12" viewBox="0 0 11 12" fill="none" xmlns="http://www.w3.org/2000/svg">
<path fill-rule="evenodd" clip-rule="evenodd" d="M2.36961 0H9.57823C9.97733 0 10.3315 0.135717 10.561 0.385261C10.8354 0.626049 11 0.936884 11 1.27837V10.7173C11 11.0631 10.8354 11.3696 10.561 11.6191C10.3315 11.8599 9.97234 12.0044 9.57823 12.0044H2.36961C1.9805 12.0044 1.62132 11.8599 1.38685 11.6191C1.10748 11.374 0.952834 11.0675 0.952834 10.7173V9.74973H0.244444C0.124717 9.74973 0 9.64903 0 9.50894C0 9.40825 0.124717 9.30317 0.244444 9.30317H0.952834V7.39876H0.244444C0.124717 7.39876 0 7.29369 0 7.15797C0 7.05728 0.124717 6.94783 0.244444 6.94783H0.952834V5.04779H0.244444C0.124717 5.04779 0 4.9471 0 4.81138C0 4.69756 0.124717 4.59686 0.244444 4.59686H0.952834V2.69683H0.244444C0.124717 2.69683 0 2.59613 0 2.45166C0 2.35097 0.124717 2.2459 0.244444 2.2459H0.952834V1.27837C0.952834 0.936884 1.10249 0.621671 1.38685 0.385261C1.61633 0.135717 1.9805 0 2.36961 0ZM1.70113 9.30317C1.85578 9.30317 1.93061 9.40825 1.93061 9.50894C1.93061 9.64466 1.85079 9.74973 1.70113 9.74973H1.42676V10.7173C1.42676 10.9624 1.5415 11.1682 1.70113 11.3039C1.8907 11.4834 2.13515 11.5841 2.36961 11.5841H9.57823C9.81769 11.5841 10.0522 11.4834 10.2567 11.3039C10.4163 11.1682 10.5311 10.9624 10.5311 10.7173V1.27837C10.5311 1.03758 10.4163 0.827435 10.2567 0.691718C10.0522 0.525356 9.82268 0.420285 9.57823 0.420285H2.36961C2.13515 0.420285 1.8907 0.525356 1.70113 0.691718C1.54649 0.827435 1.42676 1.04196 1.42676 1.27837V2.2459H1.70113C1.85578 2.2459 1.93061 2.34659 1.93061 2.45166C1.93061 2.59613 1.85079 2.69683 1.70113 2.69683H1.42676V4.59686H1.70113C1.85578 4.59686 1.93061 4.69756 1.93061 4.81138C1.93061 4.9471 1.85079 5.04779 1.70113 5.04779H1.42676V6.94783H1.70113C1.85578 6.94783 1.93061 7.05728 1.93061 7.15797C1.93061 7.29369 1.85079 7.39876 1.70113 7.39876H1.42676V9.30317H1.70113ZM3.11791 1.55856H8.82993C8.99456 1.55856 9.1093 1.59358 9.18912 1.69427C9.26395 1.75994 9.34376 1.86501 9.34376 2.00949V4.63189C9.34376 4.78074 9.26395 4.88143 9.18912 4.9471C9.1093 5.04779 8.99456 5.08719 8.82993 5.08719H3.11791C2.96327 5.08719 2.84354 5.05217 2.76871 4.9471C2.64898 4.87705 2.60907 4.77636 2.60907 4.63189V2.00949C2.60907 1.86501 2.64898 1.76432 2.76871 1.69427C2.84354 1.59358 2.95828 1.55856 3.11791 1.55856ZM8.82993 1.97884H3.078V4.66691H8.82993L8.86485 4.63189V2.00949C8.86485 2.00949 8.86485 1.97884 8.82993 1.97884Z" fill="#050505" fill-opacity="0.91"/>
</svg>
